<svg xmlns="http://www.w3.org/2000/svg" version="1.1" xmlns:xlink="http://www.w3.org/1999/xlink" xmlns:svgjs="http://svgjs.dev/svgjs" width="1000" height="1000" viewBox="0 0 1000 1000"><rect width="1000" height="1000" fill="#3fc1c0"></rect><g transform="matrix(0.7,0,0,0.7,149.57575757575756,372.07027730214213)"><svg viewBox="0 0 396 145" data-background-color="#3fc1c0" preserveAspectRatio="xMidYMid meet" height="366" width="1000" xmlns="http://www.w3.org/2000/svg" xmlns:xlink="http://www.w3.org/1999/xlink"><g id="tight-bounds" transform="matrix(1,0,0,1,0.2400000000000091,-0.0963708384489479)"><svg viewBox="0 0 395.52 145.1927416768979" height="145.1927416768979" width="395.52"><g><svg viewBox="0 0 547.5447262846847 200.99999999999997" height="145.1927416768979" width="395.52"><g><rect width="5.524603762162163" height="200.99999999999997" x="210.4406918918919" y="0" fill="#ffffff" opacity="1" stroke-width="0" stroke="transparent" fill-opacity="1" class="rect-o-0" data-fill-palette-color="primary" rx="1%" id="o-0" data-palette-color="#ffffff"></rect></g><g transform="matrix(1,0,0,1,230.4276091675676,0.4999999999999858)"><svg viewBox="0 0 317.1171171171171 200" height="200" width="317.1171171171171"><g id="textblocktransform"><svg viewBox="0 0 317.1171171171171 200" height="200" width="317.1171171171171" id="textblock"><g><svg viewBox="0 0 317.1171171171171 200" height="200" width="317.1171171171171"><g transform="matrix(1,0,0,1,0,0)"><svg width="317.1171171171171" viewBox="1.4000005722045898 -33.400001525878906 179.10000610351562 108" height="200" data-palette-color="#ffffff"><svg></svg><svg></svg><svg></svg><g class="wordmark-text-0" data-fill-palette-color="primary" id="text-0"><path xmlns="http://www.w3.org/2000/svg" d="M8.65 0h-4.15v-32.8h9.35c1.833 0 3.51 0.167 5.03 0.5 1.513 0.333 2.803 0.873 3.87 1.62 1.067 0.753 1.9 1.747 2.5 2.98 0.6 1.233 0.9 2.75 0.9 4.55v0c0 1.733-0.29 3.233-0.87 4.5-0.587 1.267-1.413 2.317-2.48 3.15-1.067 0.833-2.34 1.457-3.82 1.87-1.487 0.42-3.13 0.63-4.93 0.63v0h-5.4zM8.65-29.45v13.05h4.9c2.867 0 4.993-0.543 6.38-1.63 1.38-1.08 2.07-2.787 2.07-5.12v0c0-2.367-0.723-4.01-2.17-4.93-1.453-0.913-3.613-1.37-6.48-1.37v0zM36.95 0h-4.15v-32.8h4.15zM58.35 0.6v0c-2.067 0-3.967-0.383-5.7-1.15-1.733-0.767-3.24-1.877-4.52-3.33-1.287-1.447-2.287-3.227-3-5.34-0.72-2.12-1.08-4.513-1.08-7.18v0c0-2.633 0.367-5 1.1-7.1 0.733-2.1 1.75-3.883 3.05-5.35 1.3-1.467 2.833-2.593 4.6-3.38 1.767-0.78 3.7-1.17 5.8-1.17v0c2 0 3.76 0.407 5.28 1.22 1.513 0.82 2.753 1.763 3.72 2.83v0l-2.25 2.7c-0.867-0.933-1.85-1.683-2.95-2.25-1.1-0.567-2.35-0.85-3.75-0.85v0c-1.567 0-2.983 0.307-4.25 0.92-1.267 0.62-2.35 1.503-3.25 2.65-0.9 1.153-1.59 2.547-2.07 4.18-0.487 1.633-0.73 3.467-0.73 5.5v0c0 2.067 0.243 3.923 0.73 5.57 0.48 1.653 1.153 3.063 2.02 4.23 0.867 1.167 1.927 2.067 3.18 2.7 1.247 0.633 2.653 0.95 4.22 0.95v0c1.6 0 3-0.327 4.2-0.98 1.2-0.647 2.333-1.553 3.4-2.72v0l2.3 2.6c-1.3 1.5-2.767 2.667-4.4 3.5-1.633 0.833-3.517 1.25-5.65 1.25zM84.6 0h-4.2v-29.3h-9.9v-3.5h24v3.5h-9.9zM112.05 0.6v0c-1.667 0-3.223-0.243-4.67-0.73-1.453-0.48-2.707-1.28-3.76-2.4-1.047-1.113-1.87-2.57-2.47-4.37-0.6-1.8-0.9-4.017-0.9-6.65v0-19.25h4.15v19.35c0 1.967 0.2 3.617 0.6 4.95 0.4 1.333 0.943 2.4 1.63 3.2 0.68 0.8 1.487 1.373 2.42 1.72 0.933 0.353 1.933 0.53 3 0.53v0c1.1 0 2.117-0.177 3.05-0.53 0.933-0.347 1.75-0.92 2.45-1.72 0.7-0.8 1.25-1.867 1.65-3.2 0.4-1.333 0.6-2.983 0.6-4.95v0-19.35h4v19.25c0 2.633-0.3 4.85-0.9 6.65-0.6 1.8-1.427 3.257-2.48 4.37-1.047 1.12-2.287 1.92-3.72 2.4-1.433 0.487-2.983 0.73-4.65 0.73zM136.8 0h-4.15v-32.8h10.25c1.667 0 3.207 0.157 4.62 0.47 1.42 0.32 2.637 0.847 3.65 1.58 1.02 0.733 1.813 1.683 2.38 2.85 0.567 1.167 0.85 2.6 0.85 4.3v0c0 2.567-0.667 4.617-2 6.15-1.333 1.533-3.133 2.583-5.4 3.15v0l8.35 14.3h-4.7l-7.9-13.85h-5.95zM136.8-29.45v12.2h5.5c2.567 0 4.533-0.523 5.9-1.57 1.367-1.053 2.05-2.647 2.05-4.78v0c0-2.167-0.683-3.683-2.05-4.55-1.367-0.867-3.333-1.3-5.9-1.3v0zM180.5 0h-19.4v-32.8h18.9v3.5h-14.75v10.3h12.45v3.55h-12.45v11.9h15.25z" fill="#ffffff" fill-rule="nonzero" stroke="none" stroke-width="1" stroke-linecap="butt" stroke-linejoin="miter" stroke-miterlimit="10" stroke-dasharray="" stroke-dashoffset="0" font-family="none" font-weight="none" font-size="none" text-anchor="none" style="mix-blend-mode: normal" data-fill-palette-color="primary" opacity="1"></path><path xmlns="http://www.w3.org/2000/svg" d="M15.5 37h-4.2v-29.3h-9.9v-3.5h24v3.5h-9.9zM35.45 37h-4.15v-32.8h4.15v13.75h15.25v-13.75h4.2v32.8h-4.2v-15.45h-15.25zM68.05 37h-4.15v-32.8h4.15zM86.15 37.6v0c-2.3 0-4.433-0.433-6.4-1.3-1.967-0.867-3.667-2.05-5.1-3.55v0l2.5-2.9c1.167 1.233 2.543 2.227 4.13 2.98 1.58 0.747 3.22 1.12 4.92 1.12v0c2.167 0 3.85-0.493 5.05-1.48 1.2-0.98 1.8-2.27 1.8-3.87v0c0-0.833-0.14-1.543-0.42-2.13-0.287-0.58-0.67-1.08-1.15-1.5-0.487-0.413-1.063-0.787-1.73-1.12-0.667-0.333-1.383-0.683-2.15-1.05v0l-4.7-2.05c-0.767-0.333-1.55-0.733-2.35-1.2-0.8-0.467-1.517-1.033-2.15-1.7-0.633-0.667-1.15-1.46-1.55-2.38-0.4-0.913-0.6-1.97-0.6-3.17v0c0-1.233 0.26-2.383 0.78-3.45 0.513-1.067 1.23-1.993 2.15-2.78 0.913-0.78 1.997-1.387 3.25-1.82 1.247-0.433 2.62-0.65 4.12-0.65v0c1.967 0 3.783 0.377 5.45 1.13 1.667 0.747 3.083 1.72 4.25 2.92v0l-2.25 2.7c-1-0.967-2.107-1.727-3.32-2.28-1.22-0.547-2.597-0.82-4.13-0.82v0c-1.833 0-3.307 0.423-4.42 1.27-1.12 0.853-1.68 2.03-1.68 3.53v0c0 0.8 0.16 1.473 0.48 2.02 0.313 0.553 0.737 1.037 1.27 1.45 0.533 0.42 1.117 0.787 1.75 1.1 0.633 0.32 1.283 0.613 1.95 0.88v0l4.65 2c0.933 0.4 1.817 0.857 2.65 1.37 0.833 0.52 1.55 1.12 2.15 1.8 0.6 0.687 1.077 1.487 1.43 2.4 0.347 0.92 0.52 1.98 0.52 3.18v0c0 1.3-0.257 2.517-0.77 3.65-0.52 1.133-1.263 2.123-2.23 2.97-0.967 0.853-2.133 1.52-3.5 2-1.367 0.487-2.917 0.73-4.65 0.73z" fill="#ffffff" fill-rule="nonzero" stroke="none" stroke-width="1" stroke-linecap="butt" stroke-linejoin="miter" stroke-miterlimit="10" stroke-dasharray="" stroke-dashoffset="0" font-family="none" font-weight="none" font-size="none" text-anchor="none" style="mix-blend-mode: normal" data-fill-palette-color="primary" opacity="1"></path><path xmlns="http://www.w3.org/2000/svg" d="M8.65 74h-4.15v-32.8h9.35c1.833 0 3.51 0.167 5.03 0.5 1.513 0.333 2.803 0.873 3.87 1.62 1.067 0.753 1.9 1.747 2.5 2.98 0.6 1.233 0.9 2.75 0.9 4.55v0c0 1.733-0.29 3.233-0.87 4.5-0.587 1.267-1.413 2.317-2.48 3.15-1.067 0.833-2.34 1.457-3.82 1.87-1.487 0.42-3.13 0.63-4.93 0.63v0h-5.4zM8.65 44.55v13.05h4.9c2.867 0 4.993-0.543 6.38-1.63 1.38-1.08 2.07-2.787 2.07-5.12v0c0-2.367-0.723-4.01-2.17-4.93-1.453-0.913-3.613-1.37-6.48-1.37v0zM51.3 74h-18.5v-32.8h4.15v29.25h14.35zM62.9 55.65v0l-1.55 5h9.85l-1.55-5c-0.6-1.833-1.167-3.66-1.7-5.48-0.533-1.813-1.067-3.67-1.6-5.57v0h-0.2c-0.5 1.9-1.017 3.757-1.55 5.57-0.533 1.82-1.1 3.647-1.7 5.48zM57.15 74h-4.25l11.1-32.8h4.7l11.1 32.8h-4.45l-3.1-10h-11.95zM96.35 74.6v0c-2.067 0-3.967-0.383-5.7-1.15-1.733-0.767-3.24-1.877-4.52-3.33-1.287-1.447-2.287-3.227-3-5.34-0.72-2.12-1.08-4.513-1.08-7.18v0c0-2.633 0.367-5 1.1-7.1 0.733-2.1 1.75-3.883 3.05-5.35 1.3-1.467 2.833-2.593 4.6-3.38 1.767-0.78 3.7-1.17 5.8-1.17v0c2 0 3.76 0.407 5.28 1.22 1.513 0.82 2.753 1.763 3.72 2.83v0l-2.25 2.7c-0.867-0.933-1.85-1.683-2.95-2.25-1.1-0.567-2.35-0.85-3.75-0.85v0c-1.567 0-2.983 0.307-4.25 0.92-1.267 0.62-2.35 1.503-3.25 2.65-0.9 1.153-1.59 2.547-2.07 4.18-0.487 1.633-0.73 3.467-0.73 5.5v0c0 2.067 0.243 3.923 0.73 5.57 0.48 1.653 1.153 3.063 2.02 4.23 0.867 1.167 1.927 2.067 3.18 2.7 1.247 0.633 2.653 0.95 4.22 0.95v0c1.6 0 3-0.327 4.2-0.98 1.2-0.647 2.333-1.553 3.4-2.72v0l2.3 2.6c-1.3 1.5-2.767 2.667-4.4 3.5-1.633 0.833-3.517 1.25-5.65 1.25zM131.9 74h-19.4v-32.8h18.9v3.5h-14.75v10.3h12.45v3.55h-12.45v11.9h15.25z" fill="#ffffff" fill-rule="nonzero" stroke="none" stroke-width="1" stroke-linecap="butt" stroke-linejoin="miter" stroke-miterlimit="10" stroke-dasharray="" stroke-dashoffset="0" font-family="none" font-weight="none" font-size="none" text-anchor="none" style="mix-blend-mode: normal" data-fill-palette-color="primary" opacity="1"></path></g></svg></g></svg></g></svg></g></svg></g><g transform="matrix(1,0,0,1,0,2.5108108108107956)"><svg viewBox="0 0 195.97837837837838 195.97837837837838" height="195.97837837837838" width="195.97837837837838"><g><svg xmlns="http://www.w3.org/2000/svg" xmlns:xlink="http://www.w3.org/1999/xlink" version="1.1" x="0" y="0" viewBox="0 0 100 100" style="enable-background:new 0 0 100 100;" xml:space="preserve" height="195.97837837837838" width="195.97837837837838" class="icon-icon-0" data-fill-palette-color="accent" id="icon-0"><path d="M100 25c0-13.8-11.206-25-25-25-9.326 0-17.383 5.182-21.68 12.769 0-0.006 0.012-0.013 0.012-0.019-1.146-0.109-2.258-0.348-3.43-0.348-20.715 0-37.5 16.785-37.5 37.5 0 7.898 2.466 15.21 6.629 21.24L0 100l29.028-18.945c5.97 4.004 13.147 6.348 20.874 6.348 20.715 0 37.5-16.785 37.5-37.5 0-1.08-0.22-2.094-0.317-3.149C94.751 42.48 100 34.394 100 25zM49.902 74.902c-13.794 0-25-11.206-25-25 0-13.788 11.206-25 25-25 0.037 0 0.073 0.012 0.098 0.012 0-0.023 0.012-0.042 0.012-0.061C50.012 24.902 50 24.951 50 25c0 2.173 0.366 4.236 0.879 6.244l-9.912 9.918c-4.883 4.883-4.883 12.793 0 17.676s12.793 4.883 17.676 0l9.814-9.814c2.062 0.562 4.199 0.952 6.434 0.965C74.842 63.745 63.66 74.902 49.902 74.902zM75 37.5c-6.885 0-12.5-5.609-12.5-12.5S68.115 12.5 75 12.5 87.5 18.109 87.5 25 81.885 37.5 75 37.5z" fill="#ffffff" data-fill-palette-color="accent"></path></svg></g></svg></g></svg></g><defs></defs></svg><rect width="395.52" height="145.1927416768979" fill="none" stroke="none" visibility="hidden"></rect></g></svg></g></svg>